<?xml version="1.0" encoding="UTF-8"?>
<svg id="a" data-name="Layer 1" xmlns="http://www.w3.org/2000/svg" viewBox="0 0 458.7 252.13">
  <g>
    <path d="M203.18,155.86c-1.96,0-3.53-.48-4.69-1.45-1.16-.97-1.85-2.35-2.05-4.14h1.87c.17,1.29.66,2.27,1.47,2.92.81.65,1.93.98,3.37.98,1.22,0,2.13-.23,2.75-.69s.92-1.13.92-2.02c0-.76-.21-1.37-.63-1.82-.42-.45-1.08-.83-1.97-1.12l-2.83-.98c-1.43-.5-2.49-1.1-3.18-1.81s-1.03-1.61-1.03-2.7c0-.9.23-1.69.68-2.35.45-.66,1.09-1.18,1.92-1.56.83-.37,1.79-.56,2.88-.56,1.68,0,3.03.44,4.05,1.32,1.01.88,1.6,2.13,1.75,3.76h-1.87c-.2-1.17-.62-2.03-1.25-2.57-.63-.55-1.54-.82-2.73-.82-1.12,0-1.99.23-2.62.68-.62.45-.94,1.09-.94,1.92,0,.7.22,1.26.65,1.69.44.42,1.11.79,2.04,1.1l3.02,1.05c1.31.45,2.29,1.07,2.95,1.84.65.77.98,1.75.98,2.93,0,1.4-.48,2.49-1.44,3.26-.96.77-2.32,1.15-4.08,1.15Z" fill="#1b1b1b"/>
    <path d="M218.88,155.88c-1.17,0-2.24-.21-3.22-.64-.98-.43-1.82-1.04-2.54-1.82-.72-.79-1.27-1.71-1.67-2.77-.4-1.06-.6-2.22-.6-3.49,0-1.67.34-3.15,1.03-4.44.69-1.29,1.63-2.31,2.84-3.04,1.21-.73,2.58-1.1,4.13-1.1s2.97.37,4.17,1.1c1.21.73,2.15,1.74,2.84,3.04.68,1.29,1.03,2.78,1.03,4.47,0,1.26-.2,2.43-.6,3.49-.4,1.06-.96,1.98-1.67,2.76-.72.78-1.57,1.38-2.55,1.81-.98.43-2.05.64-3.2.64ZM218.85,154.15c1.2,0,2.26-.3,3.17-.9.91-.6,1.63-1.43,2.14-2.49.52-1.06.77-2.27.77-3.63s-.25-2.53-.76-3.55c-.51-1.03-1.22-1.83-2.13-2.41-.91-.58-1.98-.87-3.19-.87s-2.28.29-3.18.87c-.9.58-1.61,1.38-2.11,2.4-.5,1.02-.75,2.21-.75,3.57s.25,2.59.76,3.64c.51,1.05,1.21,1.88,2.12,2.48.9.6,1.96.9,3.16.9Z" fill="#1b1b1b"/>
    <path d="M230.08,155.65v-16.84h1.92v16.84h-1.92ZM231.06,146.04h11.13v1.68h-11.13v-1.68ZM241.35,155.65v-16.84h1.92v16.84h-1.92Z" fill="#1b1b1b"/>
    <path d="M254.48,155.88c-1.17,0-2.24-.21-3.22-.64-.98-.43-1.82-1.04-2.54-1.82s-1.27-1.71-1.67-2.77c-.4-1.06-.6-2.22-.6-3.49,0-1.67.34-3.15,1.03-4.44.69-1.29,1.63-2.31,2.84-3.04,1.21-.73,2.58-1.1,4.13-1.1s2.97.37,4.17,1.1c1.21.73,2.15,1.74,2.84,3.04.68,1.29,1.03,2.78,1.03,4.47,0,1.26-.2,2.43-.6,3.49-.4,1.06-.96,1.98-1.67,2.76-.72.78-1.57,1.38-2.55,1.81-.98.43-2.05.64-3.2.64ZM254.45,154.15c1.2,0,2.26-.3,3.17-.9.91-.6,1.63-1.43,2.14-2.49.52-1.06.77-2.27.77-3.63s-.25-2.53-.76-3.55c-.51-1.03-1.22-1.83-2.13-2.41-.91-.58-1.98-.87-3.19-.87s-2.28.29-3.18.87c-.9.58-1.61,1.38-2.11,2.4-.5,1.02-.75,2.21-.75,3.57s.25,2.59.76,3.64c.51,1.05,1.21,1.88,2.12,2.48.9.6,1.96.9,3.16.9Z" fill="#1b1b1b"/>
  </g>
  <g>
    <rect x="223.28" y="179.83" width="12.46" height="1.46" fill="#1b1b1b"/>
    <rect x="228.58" y="180.56" width="1.46" height="3.93" fill="#1b1b1b"/>
    <circle cx="221.26" cy="189.82" r="4.07" fill="#1b1b1b"/>
    <circle cx="229.47" cy="189.82" r="4.07" fill="#1b1b1b"/>
    <circle cx="229.47" cy="204.26" r="4.07" fill="#1b1b1b"/>
    <circle cx="237.69" cy="189.82" r="4.07" fill="#1b1b1b"/>
    <circle cx="225.37" cy="197.01" r="4.07" fill="#1b1b1b"/>
    <circle cx="233.58" cy="197.01" r="4.07" fill="#1b1b1b"/>
  </g>
  <path d="M413.48,105.15c-.05-.28-.31-.46-.59-.43-2.29.3-11.78,1.48-12.95.5-1.31-1.13-1.31-4.62-1.31-10.95v-22.98c0-20.79-8.44-30.04-27.33-30.04-10.76,0-19.01,4.12-23.08,7.85-2.03,1.84-1.86,5.07.41,6.62.6.43,1.31.64,2.01.64.89,0,1.79-.34,2.48-1.03l.38-.38c.77-.76,1.08-1.82,1.03-2.9-.03-1,.22-1.89.77-2.68,2.37-3.37,9.83-4.57,16-4.57,12.12,0,13.89,6.03,14.06,22.91.03,1.56-1.22,2.85-2.78,2.9h-.1s-12.6.76-13.15.81c-22.22,2.37-25.73,17.91-25.88,23.18-.05.89-.62,1.68-1.48,1.98-.22.07-.45.12-.67.12-.69,0-1.36-.34-1.77-.93l-21.53-30.76c16.91-3.01,26.93-12.48,26.93-25.57,0-16.14-15.14-26.57-38.55-26.57h-45.42v3.56h2.42c6.51,0,10.09,0,11.52,1.43,1.43,1.46,1.43,5.05,1.43,11.63v65.81c0,6.57,0,10.19-1.43,11.62-1.43,1.46-5,1.46-11.52,1.46h-2.42v3.56h44.6v-3.56h-2.42c-6.48,0-10.05,0-11.48-1.46-1.44-1.43-1.44-5.05-1.44-11.62v-29.32h12.99l24.47,34.89c2.25,3.18,4.35,6.17,4.18,6.87-.5.64-4.61.64-8.97.64h-3.32v3.56h48.14c6,0,10.76-1.46,14.28-4.28,1.36-1.13,3.42-.12,3.42,1.65,0,1.27,1.03,2.29,2.23,2.29.12,0,.22,0,.34-.02l25.54-3.31c.31-.04.52-.33.46-.64l-.49-2.47ZM290.21,62.42V29.49c0-6.58,0-10.17,1.44-11.64,1.43-1.43,5-1.43,11.48-1.43h3.25c13.32,0,23.37,9.88,23.37,23.01,0,10.86-9.61,22.98-23.37,22.98h-16.17ZM385.4,88.97c0,17.37-9.59,19.4-16.83,19.4-9.33,0-11.24-5.84-11.24-14.62,0-11.14,9.45-18.39,24.97-19.49,1.67-.14,3.09,1.19,3.09,2.84v11.87Z" fill="#1b1b1b"/>
  <g>
    <path d="M430.16,91.05L458.65,1.38c.26-.83-.53-1.6-1.35-1.33l-15.91,5.33c-.7.24-1.22.84-1.34,1.57l-14.18,83.06c-.2,1.14.52,2.24,1.65,2.52h0c1.13.28,2.29-.37,2.64-1.48Z" fill="#1b1b1b"/>
    <path d="M425.44,100.3c-3.26-.81-6.7,1.27-7.5,4.53s1.27,6.7,4.53,7.5,6.7-1.27,7.5-4.53c.81-3.26-1.27-6.7-4.53-7.5Z" fill="#1b1b1b"/>
  </g>
  <path d="M235,105.15c-.05-.28-.31-.46-.59-.43-2.29.3-11.8,1.48-12.95.5-1.32-1.13-1.32-4.62-1.32-10.95v-22.98c0-20.79-8.42-30.04-27.33-30.04-10.65,0-18.85,4.09-22.98,7.78-2.06,1.86-1.91,5.14.38,6.72.18.12-.06.03,1.47.47,1.04.3,2.16.01,2.93-.76l.48-.48c.74-.74,1.03-1.79.96-2.82-.05-1.07.19-1.98.77-2.8,2.35-3.37,9.81-4.57,15.98-4.57,12.12,0,13.92,6.03,14.09,22.91,0,1.56-1.24,2.84-2.78,2.89h-.09l-7.55.58c-2.94.22-5.88.57-8.75,1.17-6.53,1.44-11.7,3.61-15.49,6.53-1.86,1.46-4.57.22-4.57-2.15v-.14c0-23.63-14.18-38.57-34.46-34.72-4.91.93-8.68,4.43-11.55,8.54-1.05,1.48-3.39.71-3.39-1.08l-.29-44.86h-2.58l-23.68,3.11-2.29.48.33,3.52,2.49-.46c6.36-.84,9.81-1.31,11.15-.12,1.34,1.15,1.34,4.64,1.34,10.98l-.48,73.09c0,5.57-5.48,9.86-10.71,7.97-3.37-1.2-4.49-4.21-7.32-11.75L58.59,19.04s-.02-.07-.03-.1c-.03-.14-.09-.29-.12-.45-.71-2.18-.62-4.54.15-6.7l2.68-7.2c.43-1.24-.89-2.37-2.04-1.68l-5.4,3.21-11.14,6.6-2.47,1.48c-.65.39-.65,1.01.01,1.38,4.09,2.36,8.38,7.33,6.37,10.51-.31.5-.61.99-1,1.43C12.55,64.62,9.37,104.73,8.3,108.66c-.26.93-1.05,2.3-2.34,2.37-.08.03-4.06.04-5.47.05-.28,0-.49.22-.49.5v2.53c0,.28.22.5.5.5h33.11c.3,0,.54-.24.54-.54v-2.45c0-.3-.24-.54-.54-.54h-10.96c-2.68,0-4.85-2.03-5.1-4.61v-.02c-.03-.17-3.15-15.93,6.03-27.32,1.56-1.93,3.47-3.25,5.43-4.68,1.58-1.17,3.25-2.23,5-3.18,7.22-4.02,15.81-6.44,25.06-6.74.19,0,.38,0,.55.03,1.1.17,2.03.94,2.41,2.01l1.29,3.87.02.03,9.76,27.19c1.82,5.17,3.04,8.58,2.3,9.64-.79,1.08-4.55,1.07-10.26,1.08h-2.02c-.42,0-.77.34-.77.77v1.99c0,.42.34.77.77.77h39.93c1.65,0,3.28-.33,4.78-.96,1.13-.45,2.22-1.1,3.18-1.89l.77-.64c4.42-3.69,10.64-3.63,15.36-.33,3.51,2.49,7.68,3.82,12.3,3.82,8.97,0,16.38-4.02,21.35-10.95,1.77-2.49,5.41-2.41,6.98.22,3.04,5.07,9.18,10.72,21.43,10.72,6.02,0,10.79-1.46,14.28-4.28,1.38-1.13,3.42-.12,3.42,1.65,0,1.27,1.05,2.29,2.27,2.29.12,0,.22,0,.34-.02l25.52-3.31c.31-.04.52-.33.46-.64l-.49-2.46ZM59.45,60.04c-.1.65-.67,1.19-1.43,1.22-8.03.34-15.59,2.2-22.26,5.22-1.62.72-3.18,1.53-4.69,2.41-3.01,1.72-5.79,3.71-8.28,5.91-.45.39-1.12-.02-.96-.58,4.28-15.09,11.74-28.31,21.14-38.33.15-.15.31-.34.48-.52,1.36-1.43,3.37-3.35,4.54-4.47.43-.41,1.15-.24,1.36.33l10.05,28.03c.08.26.1.51.05.77ZM136.89,108.37c-6.74,0-12.91-6.27-16.26-15.79-1.48-4.23-2.11-8.68-2.15-13.15l-.05-4.71c-.03-4.66.53-9.3,2.04-13.68,3.37-9.68,9.68-16.24,16.41-16.24,10.67,0,16.26,16,16.26,31.79s-5.59,31.78-16.26,31.78ZM206.9,88.97c0,17.37-9.59,19.4-16.79,19.4-9.37,0-11.26-5.84-11.26-14.62,0-11.14,9.47-18.42,24.97-19.49,1.65-.14,3.08,1.19,3.08,2.84v11.87h0Z" fill="#1b1b1b"/>
  <rect x="96.89" y="193.2" width="105.68" height="1.39" fill="#1b1b1b"/>
  <rect x="256.37" y="193.2" width="105.68" height="1.39" fill="#1b1b1b"/>
  <g>
    <path d="M182.64,246.65c0-.73.08-1.33.24-1.77h2.21c-.04.18-.07.41-.09.69-.03.28-.04.54-.04.79,0,1.2.34,2.15,1.04,2.85.69.7,1.64,1.05,2.86,1.05s2.07-.31,2.7-.94c.64-.63.95-1.52.95-2.69,0-.88-.2-1.63-.61-2.26-.4-.63-1.05-1.18-1.92-1.67-.88-.5-1.54-.96-1.99-1.37-.45-.41-.75-.89-.91-1.42s-.24-1.24-.24-2.1h2.18c.02.56.08,1,.19,1.34.11.34.3.64.59.9.29.26.71.56,1.26.9,1.4.82,2.39,1.66,2.99,2.5.59.84.89,1.86.89,3.07,0,1.74-.54,3.11-1.63,4.12-1.09,1-2.59,1.51-4.51,1.51-1.24,0-2.32-.23-3.24-.68-.92-.46-1.64-1.1-2.15-1.92-.51-.83-.77-1.79-.77-2.88Z"/>
    <path d="M197.89,244.87c0-2.1.53-3.81,1.59-5.12,1.06-1.32,2.5-2.07,4.33-2.25v-.3c0-.63-.12-1.11-.35-1.45-.23-.34-.66-.65-1.29-.94-.7-.34-1.24-.68-1.61-1.02-.38-.34-.62-.76-.74-1.26-.12-.5-.16-1.14-.12-1.91h2.18c0,.5.04.9.11,1.18.07.29.23.53.47.73.24.2.61.41,1.09.65.9.41,1.55.91,1.95,1.48.4.57.61,1.28.61,2.12v.78c1.65.29,2.94,1.05,3.87,2.3.93,1.25,1.4,2.86,1.4,4.83,0,1.52-.27,2.85-.82,3.97-.55,1.12-1.33,1.98-2.34,2.58-1.01.6-2.22.9-3.62.9-2.1,0-3.74-.64-4.92-1.92-1.18-1.28-1.78-3.06-1.78-5.34ZM200.36,244.74c0,1.76.37,3.11,1.1,4.05.73.94,1.78,1.41,3.14,1.41s2.44-.47,3.17-1.42c.73-.95,1.1-2.3,1.1-4.06s-.37-3.1-1.1-4.02c-.73-.92-1.79-1.39-3.17-1.39s-2.41.47-3.14,1.4c-.74.93-1.1,2.28-1.1,4.03Z"/>
    <path d="M214.05,246.65c0-.73.08-1.33.24-1.77h2.2c-.04.18-.07.41-.09.69-.03.28-.04.54-.04.79,0,1.2.34,2.15,1.04,2.85.69.7,1.64,1.05,2.86,1.05s2.07-.31,2.7-.94c.64-.63.96-1.52.96-2.69,0-.88-.2-1.63-.61-2.26-.4-.63-1.05-1.18-1.92-1.67-.88-.5-1.54-.96-1.99-1.37-.45-.41-.75-.89-.91-1.42s-.24-1.24-.24-2.1h2.18c.02.56.08,1,.19,1.34.11.34.3.64.59.9.29.26.71.56,1.26.9,1.4.82,2.39,1.66,2.99,2.5.59.84.89,1.86.89,3.07,0,1.74-.54,3.11-1.63,4.12-1.09,1-2.59,1.51-4.51,1.51-1.24,0-2.32-.23-3.24-.68-.92-.46-1.64-1.1-2.15-1.92-.51-.83-.77-1.79-.77-2.88Z"/>
    <path d="M235.24,244.49c0-2.1.35-3.88,1.05-5.35.7-1.47,1.82-2.71,3.36-3.72,1.54-1.01,3.58-1.87,6.11-2.57.79-.23,1.39-.44,1.81-.63.42-.19.72-.41.9-.66s.28-.57.3-.94h2.18c0,.63-.07,1.16-.21,1.6-.14.44-.41.82-.81,1.14-.39.32-.95.62-1.67.9-.72.28-1.65.58-2.8.9-1.54.43-2.8.86-3.76,1.28-.97.42-1.76.92-2.37,1.49.54-.32,1.16-.48,1.86-.48.9,0,1.69.25,2.38.74.69.49,1.2,1.16,1.52,2,.75-1.88,2.22-2.83,4.41-2.83,1.76,0,3.1.62,4.03,1.87.93,1.25,1.4,3.04,1.4,5.37,0,2.51-.52,4.88-1.56,7.1h-2.31c1-2.31,1.51-4.67,1.51-7.07,0-3.58-1.1-5.38-3.28-5.38-1.01,0-1.77.38-2.3,1.14-.53.76-.8,1.86-.8,3.3v3.92h-2.29v-3.92c0-2.96-1.04-4.44-3.12-4.44s-3.25,1.79-3.25,5.38c0,2.37.5,4.73,1.51,7.07h-2.23c-1.04-2.28-1.56-4.68-1.56-7.21Z"/>
    <path d="M257.7,246.65c0-.73.08-1.33.24-1.77h2.2c-.04.18-.07.41-.09.69-.03.28-.04.54-.04.79,0,1.2.35,2.15,1.04,2.85.69.7,1.64,1.05,2.86,1.05s2.07-.31,2.7-.94c.64-.63.96-1.52.96-2.69,0-.88-.2-1.63-.61-2.26-.4-.63-1.05-1.18-1.92-1.67-.88-.5-1.54-.96-1.99-1.37-.45-.41-.75-.89-.91-1.42-.16-.54-.24-1.24-.24-2.1h2.18c.02.56.08,1,.19,1.34.11.34.3.64.59.9.29.26.71.56,1.26.9,1.4.82,2.39,1.66,2.98,2.5.59.84.89,1.86.89,3.07,0,1.74-.54,3.11-1.63,4.12-1.08,1-2.59,1.51-4.51,1.51-1.24,0-2.32-.23-3.24-.68-.92-.46-1.64-1.1-2.15-1.92-.51-.83-.76-1.79-.76-2.88Z"/>
    <path d="M273.27,248.58h2.61v3.12h-2.61v-3.12ZM273.38,232.5h2.39l-.08,13.69h-2.23l-.08-13.69Z"/>
  </g>
</svg>